<svg width="137" height="136" viewBox="0 0 137 136" fill="none" xmlns="http://www.w3.org/2000/svg">
<path fill-rule="evenodd" clip-rule="evenodd" d="M0.414185 67.9997C0.414185 30.5463 30.8833 0.0771637 68.3381 0.0771637C105.79 0.0771637 136.261 30.5477 136.261 67.9997C136.261 105.452 105.791 135.922 68.3381 135.922C30.8848 135.922 0.414185 105.453 0.414185 67.9997ZM9.08128 67.9997C9.08128 100.673 35.6632 127.255 68.3381 127.255C101.012 127.255 127.594 100.673 127.594 67.9997C127.594 35.3262 101.012 8.74426 68.3381 8.74426C35.6632 8.74426 9.08128 35.3262 9.08128 67.9997Z" fill="#1CB574"/>
<path fill-rule="evenodd" clip-rule="evenodd" d="M97.5875 33.0777L54.4023 51.2352C53.9574 51.3797 53.5428 51.5949 53.1716 51.8679C52.4147 52.411 51.8499 53.1911 51.5653 54.0896L33.4135 97.2516C32.7303 98.8753 33.0986 100.75 34.3438 101.995C35.173 102.825 36.2823 103.265 37.4091 103.265C37.9753 103.265 38.5459 103.155 39.0876 102.927L82.3103 84.7552C82.7451 84.6107 83.1496 84.3984 83.5122 84.1297C84.2676 83.5865 84.8325 82.808 85.1156 81.9124L103.263 38.7546C103.946 37.131 103.578 35.256 102.331 34.0108C101.085 32.7628 99.2126 32.3959 97.5875 33.0777ZM57.2149 63.0068L73.3299 79.1262L45.5187 90.8195L57.2149 63.0068ZM63.3428 56.8778L79.4607 72.9985L91.1555 45.1844L63.3428 56.8778Z" fill="#1CB574"/>
</svg>
