<svg width="126" height="126" viewBox="0 0 126 126" fill="none" xmlns="http://www.w3.org/2000/svg">
<path fill-rule="evenodd" clip-rule="evenodd" d="M125.262 57.6602C125.333 57.9087 125.359 58.1716 125.336 58.4431C125.8 64.6069 125.348 70.8717 123.932 77.0673C117.423 105.648 92.4272 125.609 63.1498 125.609C58.497 125.609 53.8168 125.081 49.2391 124.039C32.9883 120.338 19.1528 110.531 10.2791 96.4223C1.40401 82.3137 -1.44168 65.5949 2.26061 49.3456C8.77537 20.7601 33.7698 0.796921 63.0429 0.796921C67.6986 0.796921 72.3759 1.32417 76.955 2.36711C93.2087 6.07084 107.044 15.8805 115.918 29.9891C121.264 38.4901 124.404 47.9386 125.262 57.6602ZM59.8138 6.07464C59.3429 6.49789 58.8027 6.90813 58.2234 7.34437C55.996 9.01568 53.4724 10.9123 52.8397 16.6413C52.6519 18.3545 52.415 19.8495 52.2056 21.1684C51.3721 26.4409 51.4227 27.1819 54.0878 28.3693C57.0938 29.7098 59.0049 29.912 61.0287 30.1244C62.4197 30.2703 63.8614 30.4219 65.5659 30.942C69.8055 32.2377 69.4386 38.2122 69.2162 41.783C69.196 42.1109 69.1743 42.4981 69.157 42.8404L69.1714 42.8462L69.3231 44.0668C69.339 44.2055 71.3151 58.3632 84.2276 65.1856C85.5508 65.8876 86.2123 67.1357 86.0029 68.5253C85.4381 72.2724 77.5843 76.0989 73.6653 76.8515C72.5328 77.0667 71.4783 77.1996 70.4541 77.3282C66.749 77.7904 65.212 78.0721 64.3684 80.3992C64.2947 80.5957 64.2673 80.7271 64.2557 80.808C64.7714 81.1475 66.4341 81.37 67.2603 81.4797L67.272 81.4813C68.8242 81.6901 70.1633 81.8702 71.1345 82.6267C72.8997 84.0091 78.5535 87.4152 81.2851 85.0145C83.8363 82.7744 88.0875 82.8166 91.8619 82.8541H91.8619L91.9442 82.8549C93.6848 82.8795 96.5377 82.9141 97.3192 82.4663C97.2094 75.5153 103.422 72.206 109.434 69.0049C114.879 66.1043 120.017 63.3554 120.97 58.3068C120.209 49.1688 117.275 40.2807 112.253 32.2955C103.994 19.1677 91.1179 10.0398 75.9953 6.59323C71.7325 5.62107 67.3759 5.12993 63.0452 5.12993C62.1511 5.12993 61.2598 5.15304 60.3743 5.19205C60.2573 5.51706 60.0883 5.82619 59.8138 6.07464ZM29.8741 110.845C23.576 106.455 18.1605 100.809 13.9498 94.115C6.04541 81.5462 3.29505 66.7544 6.09741 52.2472C6.32564 52.4176 6.59143 52.5476 6.88612 52.6184C12.1846 53.8983 17.4787 56.1633 18.1634 57.4258C18.0903 58.1073 17.9815 58.8116 17.8724 59.5174L17.8724 59.5175L17.8702 59.5319L17.8697 59.5353C17.344 62.951 16.6897 67.2016 20.0774 69.668C22.9236 71.7362 25.49 69.5345 26.8732 68.3479L26.8767 68.3448L26.8941 68.3299C27.1682 68.0946 27.5327 67.7815 27.8128 67.5807C28.6377 68.3827 29.7405 69.1975 30.899 70.0534L30.9228 70.071C32.116 70.9507 35.749 73.6318 35.5467 74.51C35.3251 75.4902 34.8868 76.7128 34.4621 77.8977L34.4576 77.9104C33.2976 81.1447 32.2966 83.9384 33.9823 85.7166C34.8577 86.6743 37.9461 92.5462 38.3953 94.0702C38.3534 94.5758 38.391 95.22 38.4574 96.2586C38.5311 97.3868 38.7015 100.029 38.4011 100.688C36.5709 103.744 31.7939 109.905 29.8741 110.845ZM63.1525 121.277C90.3946 121.277 113.651 102.702 119.708 76.1068C120.433 72.9275 120.872 69.7322 121.062 66.5442C118.359 69.1602 114.792 71.0626 111.469 72.8336C105.296 76.1198 101.555 78.4036 101.656 82.3934C101.683 83.5981 101.278 84.6569 100.487 85.4586C98.6905 87.2758 95.5328 87.2368 91.8882 87.1906L91.8429 87.1901C88.9906 87.1569 85.4575 87.1158 84.1442 88.2711C82.5841 89.6434 80.7481 90.1778 78.8573 90.1778C75.0192 90.1778 70.963 87.975 68.5449 86.1058C68.2199 85.983 67.3012 85.8587 66.6829 85.7764C64.4873 85.4832 61.7571 85.1177 60.4932 83.0289C60.0093 82.2287 59.5817 80.8665 60.2924 78.9179C62.072 74.0108 66.2395 73.4879 69.9128 73.0286C70.8691 72.9101 71.8528 72.7859 72.8467 72.5952C75.9928 71.9929 79.7052 69.7943 81.1613 68.4451C68.5102 61.1662 65.614 48.1367 65.1084 45.1885C64.7186 44.3197 64.7928 43.0972 64.8876 41.5367L64.8888 41.5165C65.2326 35.9826 64.5898 35.178 64.2995 35.0884C62.9893 34.6912 61.8698 34.5727 60.5712 34.4355L60.5697 34.4353C58.4062 34.2071 55.9522 33.9483 52.3201 32.3294C46.4626 29.7206 47.1069 25.6471 47.923 20.493L47.929 20.4549C48.1284 19.1916 48.3538 17.7627 48.5297 16.1667C49.1133 10.8942 51.1053 7.92432 53.1016 5.97278C30.9225 9.76463 12.83 26.0804 6.96671 48.3967C7.26717 48.336 7.58207 48.3317 7.89987 48.4083C13.5566 49.7705 22.9734 52.7938 22.488 57.7211C22.4086 58.5257 22.2814 59.3577 22.1514 60.1941C21.6849 63.2261 21.4639 65.2831 22.5992 66.144C22.9488 66.0068 23.6306 65.4218 24.051 65.0592C25.26 64.0191 28.0956 61.5895 30.6755 64.3138C31.2611 64.9325 32.3398 65.729 33.4832 66.5732L33.4967 66.5832C36.8306 69.0417 40.6094 71.8296 39.7731 75.4712C39.4943 76.7049 39.0089 78.0613 38.5395 79.3714L38.5322 79.3917C38.1243 80.5315 37.4688 82.3631 37.4228 83.1127C38.7576 84.9819 43.1821 92.4183 42.6924 94.5735C42.6951 94.6243 42.7154 94.9351 42.739 95.297C42.7537 95.5212 42.7696 95.7651 42.7834 95.979C42.9756 98.9504 43.0492 101.347 42.1262 102.905C42.0698 102.999 37.7955 109.872 33.748 113.32C38.8038 116.273 44.332 118.476 50.2039 119.813C54.4667 120.786 58.8219 121.277 63.1525 121.277Z" fill="#1CB574"/>
</svg>
